<svg width="18" height="18" viewBox="0 0 18 18" fill="none" xmlns="http://www.w3.org/2000/svg">
<path d="M12.7549 4.61181C12.7549 4.37392 12.8494 4.14577 13.0176 3.97756C13.1858 3.80935 13.414 3.71484 13.6519 3.71484C13.8897 3.71484 14.1179 3.80935 14.2861 3.97756C14.4543 4.14577 14.5488 4.37392 14.5488 4.61181C14.5488 4.8497 14.4543 5.07785 14.2861 5.24607C14.1179 5.41428 13.8897 5.50878 13.6519 5.50878C13.414 5.50878 13.1858 5.41428 13.0176 5.24607C12.8494 5.07785 12.7549 4.8497 12.7549 4.61181Z" fill="#CEAAD0"/>
<path fill-rule="evenodd" clip-rule="evenodd" d="M9.16686 4.83594C8.03687 4.83594 6.95317 5.28482 6.15415 6.08384C5.35513 6.88286 4.90625 7.96656 4.90625 9.09654C4.90625 10.2265 5.35513 11.3102 6.15415 12.1092C6.95317 12.9083 8.03687 13.3572 9.16686 13.3572C10.2968 13.3572 11.3805 12.9083 12.1796 12.1092C12.9786 11.3102 13.4275 10.2265 13.4275 9.09654C13.4275 7.96656 12.9786 6.88286 12.1796 6.08384C11.3805 5.28482 10.2968 4.83594 9.16686 4.83594ZM6.2517 9.09654C6.2517 8.3234 6.55884 7.58192 7.10553 7.03522C7.65223 6.48852 8.39371 6.18139 9.16686 6.18139C9.94 6.18139 10.6815 6.48852 11.2282 7.03522C11.7749 7.58192 12.082 8.3234 12.082 9.09654C12.082 9.86969 11.7749 10.6112 11.2282 11.1579C10.6815 11.7046 9.94 12.0117 9.16686 12.0117C8.39371 12.0117 7.65223 11.7046 7.10553 11.1579C6.55884 10.6112 6.2517 9.86969 6.2517 9.09654Z" fill="#CEAAD0"/>
<path fill-rule="evenodd" clip-rule="evenodd" d="M13.8832 0.873899C10.7486 0.526409 7.58521 0.526409 4.45063 0.873899C2.64593 1.07572 1.18835 2.49741 0.976667 4.31109C0.604783 7.49047 0.604783 10.7024 0.976667 13.8818C1.18835 15.6954 2.64503 17.1171 4.45063 17.3189C7.58523 17.6661 10.7486 17.6661 13.8832 17.3189C15.6879 17.1171 17.1454 15.6954 17.3571 13.8818C17.7291 10.7024 17.7291 7.49047 17.3571 4.31109C17.1454 2.49741 15.6888 1.07572 13.8832 0.873899ZM4.59953 2.21038C7.63514 1.87391 10.6986 1.87391 13.7343 2.21038C14.9272 2.34493 15.8825 3.28585 16.0215 4.46806C16.3812 7.54315 16.3812 10.6497 16.0215 13.7248C15.9496 14.3034 15.6848 14.8408 15.2697 15.2503C14.8547 15.6598 14.3138 15.9174 13.7343 15.9816C10.6986 16.3181 7.63514 16.3181 4.59953 15.9816C4.02003 15.9174 3.47908 15.6598 3.06405 15.2503C2.64903 14.8408 2.38417 14.3034 2.31225 13.7248C1.95261 10.6497 1.95261 7.54315 2.31225 4.46806C2.38417 3.88947 2.64903 3.35203 3.06405 2.94254C3.47908 2.53304 4.02003 2.27452 4.59953 2.21038Z" fill="#CEAAD0"/>
</svg>
